<svg enable-background="new 0 0 440.4 129.9" viewBox="0 0 440.4 129.9" xmlns="http://www.w3.org/2000/svg"><path d="m202 42.1h-14.1l-23.2 24v-24h-10.3v51.5h10.3v-12.7l10.2-10.6 16.3 23.2h13.4l-22.3-30.8zm111.4 0-9.1 3-17.9 6v.1c-8.3 3.1-14.2 11.1-14.2 20.5 0 12.1 9.8 21.9 21.9 21.9 4.2 0 8.2-1.2 11.5-3.3.4-.3.8-.5 1.3-.8l6.5-4.4v8.5h10.3v-10.4-41.1h-5.6zm0 29.8-13 9.4c-1.8 1.2-4 1.9-6.3 1.9-6.4 0-11.6-5.2-11.6-11.6 0-5.1 3.3-9.5 8-11l22.9-8.3zm54.8-22.1v18h-.1c0 .4.1.9.1 1.3 0 7.1-5.8 12.9-12.9 12.9s-12.9-5.8-12.9-12.9c0-.4 0-.9.1-1.3h-.1v-18-7.8h-10.3v25.7 1.3c0 12.8 10.4 23.2 23.2 23.2 4.8 0 9.2-1.4 12.9-3.9v15.5c0 4.3-2.1 8.1-5.4 10.5l7.3 7.3c5.1-4.2 8.3-10.6 8.3-17.8v-61.7h-10.3v7.7zm-125.8-7.7h-19.3-10.3v47.6 31.9h10.3v-21.9-6.2l11.5-3.8 15.5-5.2v-.1c8.3-3.1 14.2-11.1 14.2-20.5-.1-12.1-9.8-21.8-21.9-21.8zm3.6 32.8-22.9 8.3v-30.9h19.3c6.4 0 11.6 5.2 11.6 11.6 0 5.2-3.4 9.5-8 11zm183.5-60.9-7.3 7.3c3.3 2.3 5.4 6.1 5.4 10.5v4.1 4.2 2l-11.6 3.9-15.5 5.2v.1c-8.3 3.1-14.2 11.1-14.2 20.5 0 12.1 9.8 21.9 21.9 21.9h19.3 10.3v-47.7-5.8-8.3c0-7.2-3.2-13.6-8.3-17.9zm-2 69.3h-19.3c-6.4 0-11.6-5.2-11.6-11.6 0-5.1 3.3-9.5 8-11l22.9-8.3z" fill="#4f504f"/><path d="m75.7 72.4c8.5 0 15.5-6.9 15.5-15.5 0-8.5-6.9-15.5-15.5-15.5-8.5 0-15.5 6.9-15.5 15.5.1 8.5 7 15.5 15.5 15.5zm-25.4-33.1c-4.5 0-8.1 3.6-8.1 8.1s3.6 8.1 8.1 8.1 8.1-3.6 8.1-8.1c.1-4.5-3.6-8.1-8.1-8.1zm7.3 34.3c0-5.4-4.4-9.8-9.8-9.8s-9.8 4.4-9.8 9.8 4.4 9.8 9.8 9.8c5.4-.1 9.8-4.4 9.8-9.8zm3.7 11.1c0 4.9 4 8.9 8.9 8.9s8.9-4 8.9-8.9-4-8.9-8.9-8.9c-4.9-.1-8.9 4-8.9 8.9zm7.4-46.4c4.4 0 8-3.6 8-8s-3.6-8-8-8-8 3.6-8 8 3.6 8 8 8zm28.5 29.6c-7.7 0-13.9 6.2-13.9 13.9s6.2 13.9 13.9 13.9 13.9-6.2 13.9-13.9c.1-7.7-6.2-13.9-13.9-13.9zm-70.6-2.1c7.1 0 12.9-5.8 12.9-12.9s-5.8-12.9-12.9-12.9-12.9 5.8-12.9 12.9c.1 7.1 5.8 12.9 12.9 12.9zm1.9 4.9c-2.6 0-4.7 2.1-4.7 4.7s2.1 4.7 4.7 4.7 4.7-2.1 4.7-4.7-2.1-4.7-4.7-4.7zm14.5 34.4c5.4 0 9.7-4.4 9.7-9.7 0-5.4-4.4-9.7-9.7-9.7-5.4 0-9.7 4.4-9.7 9.7-.1 5.3 4.3 9.7 9.7 9.7zm26.9-3.1c0-3.2-2.6-5.7-5.7-5.7-3.2 0-5.7 2.6-5.7 5.7 0 3.2 2.6 5.7 5.7 5.7 3.2.1 5.7-2.5 5.7-5.7zm11.2-4.3c-5.1 0-9.2 4.1-9.2 9.2s4.1 9.2 9.2 9.2 9.2-4.1 9.2-9.2-4.2-9.2-9.2-9.2zm20.6.6c-2.7 0-4.9 2.2-4.9 4.9s2.2 4.9 4.9 4.9 4.9-2.2 4.9-4.9c-.1-2.8-2.3-4.9-4.9-4.9zm-9.3-56c0 4.7 3.8 8.5 8.5 8.5s8.5-3.8 8.5-8.5-3.8-8.5-8.5-8.5-8.5 3.8-8.5 8.5zm12.6 12.7c-3.1 0-5.6 2.5-5.6 5.6s2.5 5.6 5.6 5.6 5.6-2.5 5.6-5.6-2.5-5.6-5.6-5.6zm-16.3-20.9c3.9 0 7.1-3.2 7.1-7.1s-3.2-7.1-7.1-7.1-7.1 3.2-7.1 7.1 3.2 7.1 7.1 7.1zm-41 1.1c5.5 0 9.9-4.4 9.9-9.9s-4.4-9.9-9.9-9.9-9.9 4.4-9.9 9.9c0 5.4 4.4 9.9 9.9 9.9zm23.1-18.7c3.8 0 7-3.1 7-7 0-3.8-3.1-7-7-7-3.8 0-7 3.1-7 7s3.2 7 7 7zm-45 19.3c3.6 0 6.4-2.9 6.4-6.4 0-3.6-2.9-6.4-6.4-6.4-3.6 0-6.4 2.9-6.4 6.4-.1 3.5 2.8 6.4 6.4 6.4zm-6.4 37.1c0-5.1-4.1-9.2-9.2-9.2s-9.2 4.1-9.2 9.2 4.1 9.2 9.2 9.2 9.2-4.1 9.2-9.2zm2.2 13.1c-4.9 0-8.9 4-8.9 8.9s4 8.9 8.9 8.9 8.9-4 8.9-8.9c0-5-4-8.9-8.9-8.9zm-15.9-28.7c2.6 0 4.7-2.1 4.7-4.7s-2.1-4.6-4.7-4.6-4.7 2.1-4.7 4.7 2.1 4.6 4.7 4.6zm5.8-15.5c2.8 0 5.1-2.3 5.1-5.1s-2.3-5.1-5.1-5.1-5.1 2.3-5.1 5.1c.1 2.8 2.3 5.1 5.1 5.1zm18.2-23.8c1.4 0 2.5-1.1 2.5-2.5s-1.1-2.5-2.5-2.5-2.5 1.1-2.5 2.5c0 1.3 1.1 2.5 2.5 2.5zm25.2-5.9c2.7 0 4.9-2.2 4.9-4.9s-2.2-4.9-4.9-4.9-4.9 2.2-4.9 4.9c.1 2.7 2.2 4.9 4.9 4.9zm-16.7-.1c1.1 0 1.9-.9 1.9-1.9 0-1.1-.9-1.9-1.9-1.9-1.1 0-1.9.9-1.9 1.9s.8 1.9 1.9 1.9zm-.8 94.1c-4.2 0-7.7 3.4-7.7 7.7 0 4.2 3.4 7.7 7.7 7.7 4.2 0 7.7-3.4 7.7-7.7 0-4.2-3.5-7.7-7.7-7.7zm21.2 3.5c-2.3 0-4.2 1.9-4.2 4.2s1.9 4.2 4.2 4.2 4.2-1.9 4.2-4.2-1.9-4.2-4.2-4.2zm13.9 8.4c-2.7 0-4.9 2.2-4.9 4.9s2.2 4.9 4.9 4.9 4.9-2.2 4.9-4.9c0-2.8-2.2-4.9-4.9-4.9zm-19.8 1.4c-2.1 0-3.8 1.7-3.8 3.8s1.7 3.8 3.8 3.8 3.8-1.7 3.8-3.8-1.7-3.8-3.8-3.8zm68.9-67.5c-3.7 0-6.8 3-6.8 6.8 0 3.7 3 6.8 6.8 6.8s6.8-3 6.8-6.8-3-6.8-6.8-6.8zm-.4 20.5c-2.7 0-4.9 2.2-4.9 4.9s2.2 4.9 4.9 4.9 4.9-2.2 4.9-4.9-2.2-4.9-4.9-4.9zm-6.8 21c-2.5 0-4.4 2-4.4 4.4 0 2.5 2 4.4 4.4 4.4s4.4-2 4.4-4.4-2-4.4-4.4-4.4zm-17.2 18.4c-2.1 0-3.8 1.7-3.8 3.8s1.7 3.8 3.8 3.8 3.8-1.7 3.8-3.8c-.1-2.1-1.8-3.8-3.8-3.8zm17.8-71.8c2.9 0 5.2-2.3 5.2-5.2s-2.3-5.2-5.2-5.2-5.2 2.3-5.2 5.2 2.3 5.2 5.2 5.2zm-12.7-16.3c2.2 0 4-1.8 4-4s-1.8-4-4-4-4 1.8-4 4 1.8 4 4 4zm-15.5-10.4c1.9 0 3.5-1.6 3.5-3.5s-1.6-3.5-3.5-3.5-3.5 1.6-3.5 3.5 1.6 3.5 3.5 3.5z" fill="#00a8e5"/></svg>